<?xml version="1.0" encoding="utf-8"?>
<!-- Generator: Adobe Illustrator 12.0.0, SVG Export Plug-In . SVG Version: 6.00 Build 51448)  -->
<!DOCTYPE svg PUBLIC "-//W3C//DTD SVG 1.1//EN" "http://www.w3.org/Graphics/SVG/1.1/DTD/svg11.dtd" [
	<!ENTITY ns_svg "http://www.w3.org/2000/svg">
	<!ENTITY ns_xlink "http://www.w3.org/1999/xlink">
]>
<svg  version="1.1"
	 id="svg4211" inkscape:version="0.91 r13725" sodipodi:docname="KraftyNook_Muppets_MissPiggy.svg" xmlns:svg="http://www.w3.org/2000/svg" xmlns:rdf="http://www.w3.org/1999/02/22-rdf-syntax-ns#" xmlns:inkscape="http://www.inkscape.org/namespaces/inkscape" xmlns:sodipodi="http://sodipodi.sourceforge.net/DTD/sodipodi-0.dtd" xmlns:dc="http://purl.org/dc/elements/1.1/" xmlns:cc="http://creativecommons.org/ns#"
	 xmlns="&ns_svg;" xmlns:xlink="&ns_xlink;" width="268" height="303" viewBox="0 0 268 303"
	 overflow="visible" enable-background="new 0 0 268 303" xml:space="preserve">
<sodipodi:namedview  id="base" bordercolor="#666666" showgrid="false" inkscape:document-units="px" inkscape:window-maximized="1" pagecolor="#ffffff" inkscape:cx="283.56237" inkscape:zoom="0.81069946" inkscape:cy="149.18979" borderopacity="1.0" inkscape:pageopacity="0.0" inkscape:pageshadow="2" inkscape:current-layer="layer1" inkscape:window-width="1280" inkscape:window-height="714" inkscape:window-x="0" inkscape:window-y="0">
	</sodipodi:namedview>
<g id="layer1" transform="translate(0,-747.36218)" inkscape:label="Layer 1" inkscape:groupmode="layer">
	<g id="g3093" transform="matrix(0.74458893,0,0,0.74460621,-435.65487,698.99908)">
	</g>
	<g id="g3812">
		<path id="path4376" fill="#DB9188" d="M174.75,749.706c-9.104,0.589-21.025,13.266-25.438,18.313
			c-10.488-4.667-21.319-5.05-27.688,7.281c-5.494-9.679-15.199-12.869-29.406-5.469c-0.196,0.102-0.397,0.21-0.594,0.313
			c-5.415-5.972-17.04-17.517-25.5-17c-1.178,0.072-2.313,0.381-3.344,0.969c-13.047,7.437-11.938,26.483-9.813,38.188
			c-16.462,11.388-30.24,25.304-36.344,44.594c-8.231,26.013,25.166,67.377,4.438,71.156c-11.533,2.103-9.004-9.005-6.5-13.344
			c-26.063,13.629-10.719,62.832,54.5,80.688c1.849,2.451,3.57,4.891,4.656,7.281c-2.082,5.303-1.673,12.25,2.219,13.875
			c2.729,1.139,10.858,0.757,11.719-12.156c0.118-1.762-0.141-3.446-0.594-5.094c1.975,0.319,3.984,0.579,6.031,0.844
			c1.206,17.551,4.818,36.054,12.094,56.031c0,0-10.849,6.597-8.719,10.656c3.215,6.125,20.688-1.688,20.688-1.688v1.813l6.281-0.25
			l5.219,0.375l-0.25-1.813c0,0,17.213,7.822,20.563,1.813c2.328-4.177-8.594-11.5-8.594-11.5c5.32-16.377,8.155-37.28,9.156-54.875
			c2.071-0.198,4.108-0.414,6.094-0.656c-0.236,1.436-0.321,2.93-0.219,4.469c0.86,12.913,8.99,13.264,11.719,12.125
			c3.892-1.625,4.3-8.541,2.219-13.844c0.831-1.828,1.927-3.681,3.125-5.531c84.208-17.745,73.848-80.291,56.594-82.563
			c4.981,11.133,0.785,13.463-2.75,13c-25.699-3.365,11.85-42.455,0.688-73.563c-7.656-21.336-21.609-34.424-38-44.844
			c2.172-11.674,3.479-31.103-9.719-38.625C177.907,749.891,176.371,749.601,174.75,749.706z M123.25,1011.143
			c0.017-0.001,0.046-0.001,0.063,0c0.315-0.026,0.608,0.247,0.594,0.563l-0.219,26.031c-0.005,0.292-0.27,0.568-0.563,0.563
			c-0.292-0.01-0.568-0.27-0.563-0.563l0.219-26.031C122.777,1011.442,122.99,1011.187,123.25,1011.143z"/>
		<path id="path3085" fill="#FECDC1" d="M174.75,749.706c-11.349,0.734-27.281,20.469-27.281,20.469l39.313,28.406
			c0,0,11.908-36.844-7.5-47.906C177.907,749.891,176.371,749.601,174.75,749.706z M66.125,753.143
			c-1.178,0.072-2.313,0.381-3.344,0.969c-19.408,11.063-7.5,47.875-7.5,47.875l39.344-28.375
			C94.625,773.612,77.512,752.448,66.125,753.143z M172.5,759.581c1.054-0.068,2.044,0.116,2.938,0.625
			c12.617,7.192,4.875,31.125,4.875,31.125l-25.563-18.469C154.75,772.862,165.123,760.058,172.5,759.581z M68.812,762.237
			c7.402-0.452,18.5,13.313,18.5,13.313L61.75,794.018c0,0-7.742-23.964,4.875-31.156C67.295,762.48,68.047,762.284,68.812,762.237z
			"/>
		<path id="path3101" inkscape:connector-curvature="0" sodipodi:nodetypes="cssscscsssc" fill="#FFCC00" d="M121.635,775.313
			c-5.495-9.679-15.212-12.874-29.42-5.474c-30.822,16.054-64.941,33.36-75.602,67.051c-8.231,26.013,25.175,67.377,4.447,71.156
			c-11.532,2.103-9.003-9.002-6.5-13.342c-31.848,16.654-1.907,86.455,105.364,87.235c140.13,1.02,129.36-84.57,109.126-87.235
			c4.98,11.133,0.798,13.463-2.737,13c-25.699-3.365,11.846-42.443,0.684-73.551c-12.999-36.227-44.123-48.671-74.576-64.657
			C141.017,763.51,128.636,761.756,121.635,775.313L121.635,775.313z"/>

			<path id="path3103" inkscape:connector-curvature="0" fill="none" stroke="#FFB380" stroke-width="0.1" stroke-linecap="round" stroke-linejoin="round" d="
			M121.88,794.286c-58.16,0.567-53.584,29.442-78.368,56.125c-31,33.375,8.127,75.299,44.257,82l0.02,0.209
			c-6.647,3.78-25.56,14.453-27.922,23.804c-2.097,8.301,9.908,17.583,13.845,26.248c-2.082,5.303-1.658,12.244,2.233,13.869
			c2.729,1.139,10.843,0.767,11.704-12.146c0.575-8.618-7.042-15.65-9.494-23.176l12.751-6.446l1.698,11.984
			c0.041,21.481,3.438,44.31,12.588,69.434c0,0-10.856,6.575-8.726,10.634c3.215,6.125,20.686-1.676,20.686-1.676v1.815l6.282-0.256
			l5.212,0.372l-0.233-1.815c0,0,17.196,7.825,20.546,1.815c2.328-4.177-8.586-11.495-8.586-11.495
			c6.842-21.063,9.587-49.64,9.587-68.992l0.954-11.053l11.937,6.05c-2.452,7.526-8.021,14.302-7.446,22.92
			c0.861,12.913,8.999,13.286,11.728,12.146c3.891-1.625,4.292-8.565,2.21-13.868c3.936-8.666,13.917-17.691,11.82-25.992
			c-2.398-9.492-21.934-20.392-28.294-24.014c21.135-2.772,84.474-36.606,42.651-87.328c-18.677-22.651-11.167-51.778-73.645-51.168
			H121.88z"/>

			<path id="path4156" inkscape:connector-curvature="0" sodipodi:nodetypes="csccsccsccccscccccccccccscscsccccccscccc" fill="#DB9188" d="
			M121.88,794.286c-58.16,0.567-53.584,29.442-78.368,56.125c-31,33.375,8.127,75.299,44.257,82l0.02,0.209
			c-6.647,3.78-25.56,14.453-27.922,23.804c-2.097,8.301,9.909,17.583,13.845,26.248c-2.081,5.303-1.658,12.244,2.234,13.868
			c2.728,1.14,10.843,0.767,11.704-12.146c0.575-8.618-7.042-15.65-9.494-23.176l12.751-6.446l1.699,11.983
			c0.04,21.482,3.438,44.31,12.588,69.435c0,0-10.856,6.575-8.726,10.634c3.215,6.125,20.686-1.676,20.686-1.676v1.815l6.282-0.256
			l5.212,0.372l-0.233-1.815c0,0,17.196,7.825,20.546,1.815c2.328-4.177-8.586-11.495-8.586-11.495
			c6.842-21.063,9.587-49.64,9.587-68.992l0.954-11.053l11.937,6.05c-2.452,7.526-8.021,14.302-7.446,22.92
			c0.861,12.913,8.999,13.286,11.728,12.146c3.891-1.625,4.292-8.565,2.21-13.868c3.936-8.666,13.917-17.691,11.82-25.992
			c-2.398-9.492-21.934-20.392-28.294-24.014c21.135-2.772,84.474-36.606,42.651-87.328c-18.677-22.651-11.167-51.778-73.645-51.168
			H121.88z M123.253,1011.129c0.017-0.001,0.033-0.001,0.05,0c0.315-0.026,0.619,0.265,0.605,0.581l-0.224,26.035
			c-0.006,0.292-0.276,0.553-0.569,0.548c-0.292-0.01-0.553-0.276-0.548-0.568l0.225-26.035c-0.004-0.264,0.205-0.514,0.465-0.558
			L123.253,1011.129z"/>

			<path id="path3166" inkscape:connector-curvature="0" sodipodi:nodetypes="csccsccsccccscccccscccccccscsccsssssssssscccccccscccc" fill="#FECDC1" d="
			M121.88,794.286c-58.16,0.567-53.584,29.442-78.368,56.125c-31,33.375,8.127,75.299,44.257,82l0.02,0.209
			c-6.647,3.78-25.56,14.453-27.922,23.804c-2.097,8.301,9.908,17.583,13.845,26.248c-2.082,5.303-1.658,12.244,2.233,13.869
			c2.729,1.139,10.843,0.767,11.704-12.146c0.575-8.618-7.042-15.65-9.494-23.176l12.751-6.446l1.698,11.984
			c0.041,21.481,3.438,44.31,12.588,69.434c0,0-10.856,6.575-8.726,10.634c3.215,6.125,20.686-1.676,20.686-1.676v1.815l6.282-0.256
			l5.212,0.372l-0.233-1.815c0,0,17.196,7.825,20.546,1.815c2.328-4.177-8.586-11.495-8.586-11.495
			c6.842-21.063,9.587-49.64,9.587-68.992l0.954-11.053l11.937,6.05c-2.452,7.526-8.021,14.302-7.446,22.92
			c0.861,12.913,8.999,13.286,11.728,12.146c3.891-1.625,4.292-8.565,2.21-13.868c3.936-8.666,13.917-17.691,11.82-25.992
			c-2.398-9.492-21.934-20.392-28.294-24.014c21.135-2.772,84.474-36.606,42.651-87.328c-18.677-22.651-11.167-51.778-73.645-51.168
			H121.88z M114.76,881.079c1.503,0,2.722,2.033,2.722,4.538s-1.219,4.514-2.722,4.514s-2.723-2.009-2.723-4.514
			S113.257,881.079,114.76,881.079z M127.487,881.079c1.503,0,2.723,2.033,2.723,4.538s-1.22,4.514-2.723,4.514
			c-1.502,0-2.722-2.009-2.722-4.514S125.985,881.079,127.487,881.079z M105.266,920.38c9.676,7.298,19.363,6.891,29.039,0
			C124.629,934.088,114.942,934.088,105.266,920.38z M123.253,1011.129c0.017-0.001,0.033-0.001,0.05,0
			c0.315-0.026,0.619,0.265,0.605,0.582l-0.224,26.035c-0.005,0.292-0.276,0.554-0.569,0.549c-0.292-0.01-0.554-0.276-0.548-0.569
			l0.225-26.035c-0.004-0.264,0.205-0.514,0.465-0.558L123.253,1011.129z"/>
		<path id="path3205" fill="#FFFFFF" d="M86.375,818.518c-1.062-0.014-2.144,0.073-3.219,0.25
			c-11.466,1.891-18.959,14.294-16.75,27.688s13.284,22.704,24.75,20.813s18.959-14.263,16.75-27.656
			C105.904,827.474,96.634,818.653,86.375,818.518z M157.469,818.518c-10.259,0.135-19.561,8.956-21.563,21.094
			c-2.209,13.394,5.315,25.765,16.781,27.656s22.541-7.419,24.75-20.813s-5.284-25.796-16.75-27.688
			C159.612,818.591,158.53,818.504,157.469,818.518z"/>
		<g id="g4402">
			<path id="path4398" fill="#9F638F" d="M87.781,931.987c-8.626,18.869-4.949,29.569,3,35.594
				c-2.622,15.074-6.862,29.482,6.906,51.281c13.978,5.401,29.201,7.31,47.719,0c12.78-16.927,10.97-34.926,6.375-53.156
				c6.084-6.384,7.898-16.739,0.969-33.188c-3.671,1.575-7.93,2.512-12.969,2.719c5.299,25.66-46.562,27.323-40.719-0.844
				C94.564,934.086,90.913,933.206,87.781,931.987z M66,953.737c-1.979-0.03-3.951,0.43-5.75,1.531
				c-0.147,0.382-0.28,0.778-0.375,1.156c-2.097,8.301,9.908,17.585,13.844,26.25c-2.081,5.303-1.673,12.25,2.219,13.875
				c2.728,1.139,10.857,0.757,11.719-12.156c0.575-8.618-7.048-15.662-9.5-23.188l0.594-0.281
				C77.078,957.624,71.529,953.828,66,953.737z M174.781,954.175c-3.836,0.116-8.578,2.021-12.875,6.938l0.938,0.469
				c-2.452,7.526-8.012,14.319-7.438,22.938c0.86,12.913,8.99,13.264,11.719,12.125c3.892-1.625,4.3-8.541,2.219-13.844
				c3.936-8.665,13.91-17.699,11.813-26c-0.07-0.273-0.154-0.537-0.25-0.813C179.534,954.825,177.371,954.097,174.781,954.175z"/>
			<path id="path3109" inkscape:connector-curvature="0" sodipodi:nodetypes="ccccsc" fill="#B57796" d="M87.768,931.994
				c3.132,1.219,6.791,2.087,11.289,2.395c-5.843,28.167,46.008,26.515,40.709,0.855c5.039-0.207,9.328-1.163,12.999-2.737
				c15.136,35.932-11.538,42.851-33.012,42.591C102.889,974.893,70.401,969.982,87.768,931.994L87.768,931.994z"/>
		</g>
		<path id="path3139" inkscape:connector-curvature="0" fill="#FFFFFF" stroke="#CCCCCC" stroke-width="0.1" d="M97.355,933.016
			c-1.7,0-3.095,1.394-3.095,3.095c0,1.7,1.395,3.071,3.095,3.071c0.808,0,1.522-0.329,2.071-0.838
			c0.101,1.61,1.414,2.886,3.048,2.886c0.917,0,1.739-0.411,2.304-1.047c0.306,1.378,1.532,2.42,3.001,2.42
			c1.032,0,1.954-0.5,2.513-1.28c0.348,1.319,1.527,2.304,2.956,2.304c1.11,0,2.087-0.584,2.629-1.466
			c0.445,1.151,1.554,1.978,2.862,1.978c1.293,0,2.383-0.802,2.839-1.931c0.562,0.75,1.434,1.256,2.443,1.256
			c1.437,0,2.639-0.996,2.979-2.327c0.559,0.781,1.48,1.28,2.513,1.28c1.536,0,2.792-1.113,3.025-2.583
			c0.563,0.736,1.445,1.233,2.443,1.233c1.535,0,2.792-1.136,3.025-2.606c0.562,0.744,1.439,1.233,2.443,1.233
			c1.7,0,3.071-1.371,3.071-3.071c0-1.701-1.371-3.095-3.071-3.095c-1.527,0-2.782,1.125-3.025,2.583
			c-0.563-0.735-1.446-1.209-2.443-1.209c-1.537,0-2.794,1.134-3.025,2.606c-0.562-0.749-1.435-1.233-2.443-1.233
			c-1.437,0-2.638,0.996-2.978,2.327c-0.558-0.788-1.475-1.303-2.513-1.303c-1.275,0-2.371,0.78-2.839,1.885
			c-0.563-0.734-1.446-1.21-2.443-1.21c-1.112,0-2.088,0.605-2.629,1.489c-0.44-1.162-1.546-2.001-2.862-2.001
			c-1.033,0-1.932,0.522-2.49,1.303c-0.34-1.331-1.542-2.327-2.979-2.327c-0.915,0-1.74,0.413-2.304,1.047
			c-0.306-1.377-1.532-2.42-3.001-2.42c-0.808,0-1.522,0.329-2.071,0.838C100.295,934.299,98.984,933.016,97.355,933.016z"/>
		<path id="path3170" inkscape:connector-curvature="0" d="M123.09,1037.284c0,0-15.158,9.16-20.988,4.957
			c-0.836-0.604-0.622-2.624-0.465-3.561c-2.95,2.285-6.463,5.673-5.166,8.144c3.215,6.125,20.686-1.675,20.686-1.675v1.815
			l6.283-0.255l5.212,0.372l-0.233-1.815c0,0,17.196,7.825,20.546,1.815c1.459-2.619-2.284-6.472-5.282-8.982
			c0.211,1.202,0.466,3.504-0.511,4.212C137.582,1046.353,123.09,1037.283,123.09,1037.284L123.09,1037.284z"/>
		<path id="path3221" inkscape:connector-curvature="0" fill="#FECDC1" stroke="#DB9188" stroke-width="0.25" d="M120.274,869.445
			c-13.092,0-23.71,7.046-23.71,15.73c0,5.073,3.615,9.574,9.237,12.449c0.562,9.4,7.024,16.823,14.938,16.823
			c8.063,0,14.641-7.708,14.985-17.358c5.052-2.884,8.237-7.146,8.237-11.914C143.961,876.491,133.367,869.445,120.274,869.445
			L120.274,869.445z M114.76,881.079c1.503,0,2.722,2.033,2.722,4.538s-1.219,4.514-2.722,4.514s-2.722-2.009-2.722-4.514
			S113.257,881.079,114.76,881.079z M127.488,881.079c1.503,0,2.722,2.033,2.722,4.538s-1.219,4.514-2.722,4.514
			c-1.503,0-2.723-2.009-2.723-4.514S125.985,881.079,127.488,881.079z"/>
		<path id="path3227" inkscape:connector-curvature="0" fill="#AA0000" d="M129.842,899.565c-2.93,0.86-6.153,1.35-9.563,1.35
			c-3.068,0-6.011-0.39-8.702-1.094c0.984,4.921,4.697,8.586,9.121,8.586C125.199,908.407,128.937,904.615,129.842,899.565z"/>
		<path id="path3230" inkscape:connector-curvature="0" fill="#D35F5F" d="M125.863,900.449c-1.795,0.289-3.655,0.466-5.584,0.466
			c-1.603,0-3.186-0.102-4.7-0.303c0.997,2.133,2.928,3.56,5.119,3.56C122.944,904.172,124.889,902.67,125.863,900.449z"/>
		<path id="path3218" inkscape:connector-curvature="0" fill="#FECDC1" stroke="#DB9188" stroke-width="0.25" d="M120.274,869.468
			c-13.092,0-23.71,7.022-23.71,15.707c0,8.684,10.618,15.729,23.71,15.729s23.687-7.046,23.687-15.729
			C143.961,876.491,133.367,869.468,120.274,869.468z M114.76,881.079c1.503,0,2.722,2.033,2.722,4.538s-1.219,4.514-2.722,4.514
			s-2.722-2.009-2.722-4.514S113.257,881.079,114.76,881.079z M127.488,881.079c1.503,0,2.722,2.033,2.722,4.538
			s-1.219,4.514-2.722,4.514c-1.503,0-2.723-2.009-2.723-4.514S125.985,881.079,127.488,881.079z"/>
		<path id="path3208" fill="#00AAD4" d="M90.062,833.737c-7.748,0-14.031,6.283-14.031,14.031S82.315,861.8,90.062,861.8
			s14.031-6.283,14.031-14.031S97.81,833.737,90.062,833.737z M153.781,833.737c-7.748,0-14.031,6.283-14.031,14.031
			s6.284,14.031,14.031,14.031s14-6.283,14-14.031S161.529,833.737,153.781,833.737z"/>
		<path id="path4149" stroke="#000000" stroke-width="0.1" d="M90.75,838.518c-4.917,0-8.906,3.989-8.906,8.906
			s3.99,8.906,8.906,8.906s8.906-3.989,8.906-8.906S95.666,838.518,90.75,838.518z M153.094,838.518
			c-4.917,0-8.906,3.989-8.906,8.906s3.99,8.906,8.906,8.906s8.906-3.989,8.906-8.906S158.01,838.518,153.094,838.518z"/>
		<path id="path4151" fill="#B57796" d="M86.344,818.518c-1.062-0.014-2.112,0.073-3.188,0.25
			c-11.466,1.891-18.99,14.294-16.781,27.688c0.065,0.394,0.139,0.769,0.219,1.156c1.845-20.218,27.122-35.54,41.656-4.594
			c-0.051-1.125-0.124-2.261-0.313-3.406C105.936,827.474,96.603,818.653,86.344,818.518z M157.469,818.518
			c-10.259,0.135-19.561,8.956-21.563,21.094c-0.189,1.145-0.262,2.282-0.313,3.406c14.534-30.946,39.811-15.624,41.656,4.594
			c0.08-0.387,0.123-0.762,0.188-1.156c2.209-13.394-5.315-25.796-16.781-27.688C159.581,818.591,158.53,818.504,157.469,818.518z"
			/>
		<path id="path3335" stroke="#000000" stroke-width="0.1" d="M86.594,825.425c-4.541,0.218-8.807,2.414-12.25,5.781
			c-0.072-0.03-0.14-0.085-0.219-0.094c-4.754-0.564-7.23-2.515-9.219-5.219c-0.181-0.258-0.498-0.393-0.813-0.375
			c-0.671,0.033-1.091,0.932-0.688,1.469c2.03,2.76,4.854,5.04,9.406,5.844c-0.435,0.512-0.852,1.042-1.25,1.594
			c-0.032-0.008-0.06,0.004-0.094,0c-6.159-0.621-11.382-2.282-15.563-5.375c-0.195-0.151-0.442-0.222-0.688-0.188
			c-0.73,0.102-1.003,1.254-0.406,1.688c4.308,3.187,9.522,4.943,15.563,5.656c-0.144,0.238-0.3,0.476-0.438,0.719
			c-0.037,0.006-0.054-0.013-0.094,0c-5.527,0.956-10.789,0.207-15.813-1.031c-0.083-0.02-0.164-0.036-0.25-0.031
			c-0.449,0.01-0.861,0.397-0.906,0.844s0.281,0.9,0.719,1c4.847,1.195,9.796,2.032,15.313,1.25
			c-0.042,0.091-0.084,0.189-0.125,0.281c-3.085,2.07-7.457,3.272-11.156,3.063c-0.487-0.03-0.938,0.388-0.969,0.875
			s0.388,0.938,0.875,0.969c3.618,0.206,7.012-0.23,10.188-2.094c-0.563,1.787-0.951,3.654-1.125,5.563
			c0.119,0.559,0.258,1.234,0.406,1.719c8.19-29.601,34.835-22.24,41.281-4c0.053-1.366,0.056-1.081-0.031-2.313
			c-5.905-12.572-13.59-17.523-20.75-17.594C87.195,825.422,86.896,825.41,86.594,825.425z M156.281,825.425
			c-7.16,0.071-14.814,5.021-20.719,17.594c-0.022,1.057-0.09,1.072-0.031,2.313c6.446-18.24,33.06-25.601,41.25,4
			c0.148-0.485,0.288-1.16,0.406-1.719c-0.174-1.908-0.531-3.775-1.094-5.563c3.176,1.863,6.57,2.299,10.188,2.094
			c0.487-0.03,0.874-0.481,0.844-0.969s-0.481-0.905-0.969-0.875c-3.699,0.21-8.071-0.992-11.156-3.063
			c-0.041-0.092-0.052-0.19-0.094-0.281c5.517,0.782,10.465-0.055,15.313-1.25c0.438-0.1,0.764-0.553,0.719-1
			s-0.457-0.834-0.906-0.844c-0.086-0.004-0.167,0.012-0.25,0.031c-5.023,1.238-10.285,1.987-15.813,1.031
			c-0.04-0.013-0.088,0.006-0.125,0c-0.137-0.243-0.262-0.48-0.406-0.719c6.041-0.713,11.254-2.469,15.563-5.656
			c0.597-0.433,0.324-1.586-0.406-1.688c-0.245-0.034-0.523,0.036-0.719,0.188c-4.181,3.093-9.372,4.754-15.531,5.375
			c-0.034,0.004-0.062-0.008-0.094,0c-0.398-0.551-0.815-1.082-1.25-1.594c4.553-0.804,7.345-3.084,9.375-5.844
			c0.404-0.537-0.016-1.436-0.688-1.469c-0.314-0.018-0.632,0.117-0.813,0.375c-1.989,2.704-4.434,4.655-9.188,5.219
			c-0.079,0.009-0.178,0.064-0.25,0.094C165.765,827.614,161.16,825.376,156.281,825.425z"/>
	</g>
</g>
</svg>
